<?xml version="1.0" encoding="UTF-8"?>
<svg width="36px" height="37px" viewBox="0 0 36 37" version="1.1" xmlns="http://www.w3.org/2000/svg" xmlns:xlink="http://www.w3.org/1999/xlink">
    <title>预览</title>
    <g id="页面-1" stroke="none" stroke-width="1" fill="none" fill-rule="evenodd">
        <g id="三维编辑器-展开" transform="translate(-1659.000000, -6.000000)">
            <g id="预览" transform="translate(1659.000000, 6.750906)">
                <g id="导出全部材质备份" fill="#2E2E2E">
                    <path d="M2,0 L34,0 C35.1045695,-2.02906125e-16 36,0.8954305 36,2 L36,34 C36,35.1045695 35.1045695,36 34,36 L2,36 C0.8954305,36 1.02344917e-15,35.1045695 0,34 L0,2 C-1.3527075e-16,0.8954305 0.8954305,1.09108455e-15 2,0 Z" id="矩形"></path>
                </g>
                <g id="模型预览备份" transform="translate(7.000000, 6.376812)">
                    <rect id="矩形" fill-opacity="0.01" fill="#FFFFFF" fill-rule="nonzero" opacity="0" x="0" y="0" width="22" height="22"></rect>
                    <path d="M11,17.3935556 C17.0590538,17.3935556 20.5833333,10.6313351 20.5833333,10.6313351 C20.5833333,10.6313351 17.2344701,3.67890573 11,3.67890573 C4.76552992,3.67890573 1.41666667,10.6313351 1.41666667,10.6313351 C1.41666667,10.6313351 4.94094618,17.3935556 11,17.3935556 Z" id="路径" stroke="#FFFFFF" stroke-width="1.66666667" stroke-linejoin="round"></path>
                    <path d="M11,13.0271684 C12.3231708,13.0271684 13.3958333,11.9545059 13.3958333,10.6313351 C13.3958333,9.30816422 12.3231708,8.23550172 11,8.23550172 C9.67682917,8.23550172 8.60416667,9.30816422 8.60416667,10.6313351 C8.60416667,11.9545059 9.67682917,13.0271684 11,13.0271684 Z" id="路径" stroke="#FFFFFF" stroke-width="1.66666667" stroke-linejoin="round"></path>
                </g>
            </g>
        </g>
    </g>
</svg>