<?xml version="1.0" encoding="UTF-8"?>
<svg width="36px" height="37px" viewBox="0 0 36 37" version="1.1" xmlns="http://www.w3.org/2000/svg" xmlns:xlink="http://www.w3.org/1999/xlink">
    <title>代码</title>
    <g id="页面-1" stroke="none" stroke-width="1" fill="none" fill-rule="evenodd">
        <g id="三维编辑器-展开" transform="translate(-1756.000000, -6.000000)">
            <g id="代码" transform="translate(1756.000000, 6.750906)">
                <path d="M2,0 L34,0 C35.1045695,-2.02906125e-16 36,0.8954305 36,2 L36,34 C36,35.1045695 35.1045695,36 34,36 L2,36 C0.8954305,36 1.02344917e-15,35.1045695 0,34 L0,2 C-1.3527075e-16,0.8954305 0.8954305,1.09108455e-15 2,0 Z" id="矩形备份-2" fill="#2E2E2E"></path>
                <g transform="translate(10.083333, 10.376812)" id="路径" stroke="#FFFFFF" stroke-linejoin="round" stroke-width="1.66666667">
                    <path d="M0,0.833333333 C0,0.373095833 0.373095833,0 0.833333333,0 L6.83333333,0 L8.91666667,2.5 L15,2.5 C15.46025,2.5 15.8333333,2.87308333 15.8333333,3.33333333 L15.8333333,14.4130423 C15.8333333,14.8732923 15.46025,15.2463756 15,15.2463756 L0.833333333,15.2463756 C0.373095833,15.2463756 0,14.8732923 0,14.4130423 L0,0.833333333 Z"></path>
                    <polyline stroke-linecap="round" points="9.72848826 6.77084084 11.8118216 8.85417417 9.72848826 10.9375075"></polyline>
                    <polyline stroke-linecap="round" points="6.10484507 6.77084084 4.02151174 8.85417417 6.10484507 10.9375075"></polyline>
                </g>
            </g>
        </g>
    </g>
</svg>