<?xml version="1.0" encoding="UTF-8"?>
<svg width="24px" height="26px" viewBox="0 0 24 26" version="1.1" xmlns="http://www.w3.org/2000/svg" xmlns:xlink="http://www.w3.org/1999/xlink">
    <title>导出单个材质</title>
    <g id="页面-1" stroke="none" stroke-width="1" fill="none" fill-rule="evenodd">
        <g id="三维编辑器-展开" transform="translate(-1579.000000, -734.000000)">
            <g id="导出单个材质" transform="translate(1579.000000, 734.612928)">
                <rect id="矩形" stroke="#979797" fill="#D8D8D8" opacity="0" x="0.680017423" y="0.680017423" width="22.6399652" height="22.6399652" rx="1"></rect>
                <line x1="14.5" y1="12.4166667" x2="19.5" y2="12.4166667" id="路径" stroke="#FFFFFF" stroke-width="1.66666667" stroke-linecap="round" stroke-linejoin="round"></line>
                <polyline id="路径" stroke="#FFFFFF" stroke-width="1.66666667" stroke-linecap="round" stroke-linejoin="round" points="17 9.91666667 19.5 12.4166667 17 14.9166667"></polyline>
                <path d="M10.75,4.5 L10.75,12.8333333 C10.75,15.6412917 8.18116667,18.4861667 5.75,19.5" id="路径" stroke="#FFFFFF" stroke-width="1.66666667" stroke-linecap="round" stroke-linejoin="round"></path>
                <path d="M19.5,7.83333333 L19.5,5.75 C19.5,5.05964583 18.940375,4.5 18.25,4.5 L5.75,4.5 C5.05964583,4.5 4.5,5.05964583 4.5,5.75 L4.5,18.25 C4.5,18.940375 5.05964583,19.5 5.75,19.5 L18.25,19.5 C18.940375,19.5 19.5,18.940375 19.5,18.25 L19.5,16.7916667" id="路径" stroke="#FFFFFF" stroke-width="1.66666667" stroke-linecap="round" stroke-linejoin="round"></path>
            </g>
        </g>
    </g>
</svg>