<?xml version="1.0" encoding="UTF-8"?>
<svg width="24px" height="26px" viewBox="0 0 24 26" version="1.1" xmlns="http://www.w3.org/2000/svg" xmlns:xlink="http://www.w3.org/1999/xlink">
    <title>导入单个材质</title>
    <g id="页面-1" stroke="none" stroke-width="1" fill="none" fill-rule="evenodd">
        <g id="三维编辑器-折叠" transform="translate(-1627.000000, -279.000000)">
            <g id="导入单个材质" transform="translate(1627.000000, 279.383569)">
                <rect id="矩形备份-3" stroke="#979797" fill="#D8D8D8" opacity="0" x="0.851105498" y="0.680017423" width="22.6399652" height="22.6399652" rx="1"></rect>
                <path d="M8.83775474,4.5 L5.50442141,4.5 C5.04418391,4.5 4.67108807,4.87309583 4.67108807,5.33333333 L4.67108807,8.66666667" id="路径" stroke="#FFFFFF" stroke-width="1.66666667" stroke-linecap="round" stroke-linejoin="round"></path>
                <path d="M8.83775474,19.5 L5.50442141,19.5 C5.04418391,19.5 4.67108807,19.1269167 4.67108807,18.6666667 L4.67108807,15.3333333" id="路径" stroke="#FFFFFF" stroke-width="1.66666667" stroke-linecap="round" stroke-linejoin="round"></path>
                <path d="M15.5044214,19.5 L18.8377547,19.5 C19.2980047,19.5 19.6710881,19.1269167 19.6710881,18.6666667 L19.6710881,15.3333333" id="路径" stroke="#FFFFFF" stroke-width="1.66666667" stroke-linecap="round" stroke-linejoin="round"></path>
                <path d="M15.5044214,4.5 L18.8377547,4.5 C19.2980047,4.5 19.6710881,4.87309583 19.6710881,5.33333333 L19.6710881,8.66666667" id="路径" stroke="#FFFFFF" stroke-width="1.66666667" stroke-linecap="round" stroke-linejoin="round"></path>
                <line x1="15.5044214" y1="12" x2="8.83775474" y2="12" id="路径" stroke="#FFFFFF" stroke-width="1.66666667" stroke-linecap="round" stroke-linejoin="round"></line>
                <line x1="12.1710881" y1="15.3333333" x2="12.1710881" y2="8.66666667" id="路径" stroke="#FFFFFF" stroke-width="1.66666667" stroke-linecap="round" stroke-linejoin="round"></line>
            </g>
        </g>
    </g>
</svg>