<?xml version="1.0" standalone="no"?><!DOCTYPE svg PUBLIC "-//W3C//DTD SVG 1.1//EN" "http://www.w3.org/Graphics/SVG/1.1/DTD/svg11.dtd"><svg t="1645092829449" class="icon" viewBox="0 0 1024 1024" version="1.1" xmlns="http://www.w3.org/2000/svg" p-id="2863" width="200" height="200" xmlns:xlink="http://www.w3.org/1999/xlink"><defs><style type="text/css"></style></defs><path d="M593.94368 715.648a10.688 10.688 0 0 0-14.976 0L424.21568 870.4c-71.68 71.68-192.576 79.232-271.68 0-79.232-79.232-71.616-200 0-271.616l154.752-154.752a10.688 10.688 0 0 0 0-15.04l-52.992-52.992a10.688 10.688 0 0 0-15.04 0L84.50368 530.688a287.872 287.872 0 0 0 0 407.488 288 288 0 0 0 407.488 0l154.752-154.752a10.688 10.688 0 0 0 0-15.04l-52.736-52.736z m344.384-631.168a288.256 288.256 0 0 1 0 407.616l-154.752 154.752a10.688 10.688 0 0 1-15.04 0l-52.992-52.992a10.688 10.688 0 0 1 0-15.104l154.752-154.688c71.68-71.68 79.232-192.448 0-271.68-79.104-79.232-200-71.68-271.68 0L443.92768 307.2a10.688 10.688 0 0 1-15.04 0l-52.864-52.864a10.688 10.688 0 0 1 0-15.04l154.88-154.752a287.872 287.872 0 0 1 407.424 0z m-296.32 240.896l52.672 52.736a10.688 10.688 0 0 1 0 15.04l-301.504 301.44a10.688 10.688 0 0 1-15.04 0l-52.736-52.672a10.688 10.688 0 0 1 0-15.04l301.632-301.504a10.688 10.688 0 0 1 15.04 0z" fill="#ffffff" p-id="2864"></path></svg>