<svg data-noselect="" viewBox="0 0 800 600" width="800" height="600" preserveAspectRatio="none" version="1.1" xmlns="http://www.w3.org/2000/svg" xmlns:xlink="http://www.w3.org/1999/xlink" class="svg-canvas"><defs></defs> <g id="background" data-noselect=""> <!----></g> <g id="shape_OYqKI1CcvR" transform="translate(123.33923230309,209.90892314304514) rotate(0,108.60119641077,82.820180536822) scale(1,1)" filter="" style="opacity: 1;"><g><rect fill="rgba(0,0,0,0)" width="237.20239282154" height="185.64036107364" x="-10" y="-10"></rect><svg version="1.1" id="图层_1" xmlns="http://www.w3.org/2000/svg" xmlns:xlink="http://www.w3.org/1999/xlink" x="0px" y="0px" width="217.20239282154" height="165.64036107364" viewBox="2.5 23.899999618530273 196.29998779296875 149.70001220703125" style="enable-background:new 0 0 200 200;" xml:space="preserve" class="style-removed" preserveAspectRatio="none" data-parent="shape_OYqKI1CcvR">

<path d="M2.5,173.5l15.7-55.8c1.9-6.7,8-11.3,14.9-11.3h77.7L95,162.3c-1.9,6.7-8,11.3-14.9,11.3H2.5z" fill="#0348FE" stroke-width="0"></path>
<path d="M50.3,50.5l6.2-22.1c0.7-2.6,3.2-4.5,5.9-4.5h30.7l-6.2,22.1c-0.7,2.6-3.2,4.5-5.9,4.5H50.3z" fill="#027DFF" stroke-width="0"></path>
<path d="M46.5,132.3l15.7-55.8c1.9-6.7,8-11.3,14.9-11.3h77.7L139.1,121c-1.9,6.7-8,11.3-14.9,11.3H46.5z" fill="#027DFF" stroke-width="0"></path>
<path d="M77.1,65.3c-6.9,0-13,4.6-14.9,11.3L90.5,91c0,0,7.3-25.8,7.3-25.8H77.1z" fill="#0507D9" stroke-width="0"></path>
<path d="M33.1,106.5c-6.9,0-13,4.6-14.9,11.3l28.3,14.5c0,0,7.3-25.8,7.3-25.8H33.1z" fill="#0507D9" stroke-width="0"></path>
<path d="M90.5,91l15.7-55.8c1.9-6.7,8-11.3,14.9-11.3h77.7l-15.7,55.8c-1.9,6.7-8,11.3-14.9,11.3H90.5z" fill="#0348FE" stroke-width="0"></path>
</svg></g></g><g id="shape_PUimOcwDy2" transform="translate(211.15162512462996,-233.94336598048994) rotate(0,307.9374829575645,526.67) scale(1,1)" filter="" style="opacity: 1;"><g><svg xmlns="http://www.w3.org/2000/svg" version="1.1" xmlns:xlink="http://www.w3.org/1999/xlink" width="908.654965915129" height="1053.34" viewBox="0 0 908.654965915129 1053.34" data-parent="shape_PUimOcwDy2"><rect fill="rgba(0,0,0,0)" width="323.094965915129" height="175" x="146.39" y="439.16999999999996"></rect><g data-width="300.24589" transform="translate(146.39, 0)"><path d="M47.87 0L4.83 0L4.83-17.27L46.70-17.27Q55.34-17.27 58.41-19.76L58.41-19.76Q62.22-22.84 62.22-28.84L62.22-28.84Q62.22-36.16 57.38-38.94L57.38-38.94Q54.31-40.70 46.70-40.70L46.70-40.70L14.05-40.70L14.05-57.97L46.70-57.97Q55.92-57.97 58.70-60.31L58.70-60.31Q62.07-63.09 62.07-68.95L62.07-68.95Q62.07-75.39 57.68-78.32L57.68-78.32Q56.07-79.49 53.94-79.86Q51.82-80.22 46.70-80.22L46.70-80.22L4.83-80.22L4.83-97.64L50.36-97.64Q60.02-97.50 62.73-97.20Q65.44-96.91 68.66-95.74L68.66-95.74Q76.27-92.96 80.66-85.49L80.66-85.49Q85.05-78.61 85.05-70.71L85.05-70.71Q85.05-57.09 72.02-49.48L72.02-49.48Q85.05-40.99 85.05-25.91L85.05-25.91Q85.05-12.00 74.51-5.27L74.51-5.27Q69.83-2.20 64.34-1.10Q58.85 0 47.87 0L47.87 0Z" transform="translate(0 579.17) " fill="#FFFFFF" stroke="#FFFFFF" stroke-width="0.244" data-glyph-w="90.61541" data-glyph-h="146.39" data-glyph-ascender="125.74901" data-glyph-descender="-20.64099"></path><path d="M9.95 0L9.95-97.64L51.38-97.64Q66.90-97.64 75.39-94.57L75.39-94.57Q91.05-88.86 96.32-73.63L96.32-73.63Q100.28-61.92 100.28-48.60L100.28-48.60Q100.28-35.43 96.47-23.72L96.47-23.72Q92.66-11.71 83.88-6.00L83.88-6.00Q78.32-2.49 71.66-1.24Q65.00 0 51.38 0L51.38 0L9.95 0ZM51.38-80.22L30.74-80.22L30.74-17.42L51.38-17.42Q65.00-17.42 70.27-23.42L70.27-23.42Q73.49-27.23 75.46-34.11Q77.44-40.99 77.44-48.75L77.44-48.75Q77.44-57.38 75.10-64.56Q72.76-71.73 68.95-75.24L68.95-75.24Q63.39-80.22 51.38-80.22L51.38-80.22Z" transform="translate(90.61541 579.17) " fill="#FFFFFF" stroke="#FFFFFF" stroke-width="0.244" data-glyph-w="104.81523999999999" data-glyph-h="146.39" data-glyph-ascender="125.74901" data-glyph-descender="-20.64099"></path><path d="M9.95 0L9.95-97.64L51.38-97.64Q66.90-97.64 75.39-94.57L75.39-94.57Q91.05-88.86 96.32-73.63L96.32-73.63Q100.28-61.92 100.28-48.60L100.28-48.60Q100.28-35.43 96.47-23.72L96.47-23.72Q92.66-11.71 83.88-6.00L83.88-6.00Q78.32-2.49 71.66-1.24Q65.00 0 51.38 0L51.38 0L9.95 0ZM51.38-80.22L30.74-80.22L30.74-17.42L51.38-17.42Q65.00-17.42 70.27-23.42L70.27-23.42Q73.49-27.23 75.46-34.11Q77.44-40.99 77.44-48.75L77.44-48.75Q77.44-57.38 75.10-64.56Q72.76-71.73 68.95-75.24L68.95-75.24Q63.39-80.22 51.38-80.22L51.38-80.22Z" transform="translate(195.43064999999999 579.17) " fill="#FFFFFF" stroke="#FFFFFF" stroke-width="0.244" data-glyph-w="104.81523999999999" data-glyph-h="146.39" data-glyph-ascender="125.74901" data-glyph-descender="-20.64099"></path></g></svg></g></g></svg>