<svg data-noselect="" preserveAspectRatio="none" version="1.1"
    xmlns="http://www.w3.org/2000/svg" xmlns:xlink="http://www.w3.org/1999/xlink" class="svg-canvas">
    <defs></defs>
    <g id="background" data-noselect="">
        <!---->
    </g>
    <g id="shape_OYqKI1CcvR"
        transform="translate(2.33923230309,4.908923143045143) rotate(0,170.34054416957127,129.90312341959614) scale(1,1)"
        filter="" style="opacity: 1;">
        <g>
            <rect fill="rgba(0,0,0,0)" width="360.68108833914255" height="279.8062468391923" x="-10" y="-10"></rect><svg
                version="1.1" id="图层_1" xmlns="http://www.w3.org/2000/svg" xmlns:xlink="http://www.w3.org/1999/xlink"
                x="0px" y="0px" width="340.68108833914255" height="259.8062468391923"
                viewBox="2.5 23.899999618530273 196.29998779296875 149.70001220703125"
                style="enable-background:new 0 0 200 200;" xml:space="preserve" class="style-removed"
                preserveAspectRatio="none" data-parent="shape_OYqKI1CcvR">

                <path d="M2.5,173.5l15.7-55.8c1.9-6.7,8-11.3,14.9-11.3h77.7L95,162.3c-1.9,6.7-8,11.3-14.9,11.3H2.5z"
                    fill="#0348FE" stroke-width="0"></path>
                <path d="M50.3,50.5l6.2-22.1c0.7-2.6,3.2-4.5,5.9-4.5h30.7l-6.2,22.1c-0.7,2.6-3.2,4.5-5.9,4.5H50.3z"
                    fill="#027DFF" stroke-width="0"></path>
                <path d="M46.5,132.3l15.7-55.8c1.9-6.7,8-11.3,14.9-11.3h77.7L139.1,121c-1.9,6.7-8,11.3-14.9,11.3H46.5z"
                    fill="#027DFF" stroke-width="0"></path>
                <path d="M77.1,65.3c-6.9,0-13,4.6-14.9,11.3L90.5,91c0,0,7.3-25.8,7.3-25.8H77.1z" fill="#0507D9"
                    stroke-width="0"></path>
                <path d="M33.1,106.5c-6.9,0-13,4.6-14.9,11.3l28.3,14.5c0,0,7.3-25.8,7.3-25.8H33.1z" fill="#0507D9"
                    stroke-width="0"></path>
                <path d="M90.5,91l15.7-55.8c1.9-6.7,8-11.3,14.9-11.3h77.7l-15.7,55.8c-1.9,6.7-8,11.3-14.9,11.3H90.5z"
                    fill="#0348FE" stroke-width="0"></path>
            </svg>
        </g>
    </g>
    <g id="shape_PUimOcwDy2"
        transform="translate(123.70032064223255,-649.0510768569549) rotate(0,461.3402743349623,789.46) scale(1,1)"
        filter="" style="opacity: 1;">
        <g><svg xmlns="http://www.w3.org/2000/svg" version="1.1" xmlns:xlink="http://www.w3.org/1999/xlink"
                width="1361.3205486699246" height="1578.92" viewBox="0 0 1361.3205486699246 1578.92"
                data-parent="shape_PUimOcwDy2">
                <rect fill="rgba(0,0,0,0)" width="484.04054866992465" height="263" x="219.32" y="657.96"></rect>
                <g data-width="449.82532" transform="translate(219.32, 0)">
                    <path
                        d="M71.72 0L7.24 0L7.24-25.88L69.96-25.88Q82.90-25.88 87.51-29.61L87.51-29.61Q93.21-34.21 93.21-43.21L93.21-43.21Q93.21-54.17 85.97-58.34L85.97-58.34Q81.37-60.97 69.96-60.97L69.96-60.97L21.05-60.97L21.05-86.85L69.96-86.85Q83.78-86.85 87.95-90.36L87.95-90.36Q92.99-94.53 92.99-103.30L92.99-103.30Q92.99-112.95 86.41-117.34L86.41-117.34Q84.00-119.09 80.82-119.64Q77.64-120.19 69.96-120.19L69.96-120.19L7.24-120.19L7.24-146.29L75.45-146.29Q89.92-146.07 93.98-145.63Q98.04-145.19 102.86-143.44L102.86-143.44Q114.27-139.27 120.85-128.08L120.85-128.08Q127.42-117.77 127.42-105.93L127.42-105.93Q127.42-85.53 107.91-74.13L107.91-74.13Q127.42-61.41 127.42-38.82L127.42-38.82Q127.42-17.98 111.63-7.90L111.63-7.90Q104.62-3.29 96.39-1.64Q88.17 0 71.72 0L71.72 0Z"
                        transform="translate(0 867.96) " fill="rgb(8, 12, 36)" stroke="rgb(8, 12, 36)"
                        stroke-width="0.366" data-glyph-w="135.75907999999998" data-glyph-h="219.32"
                        data-glyph-ascender="188.39587999999998" data-glyph-descender="-30.92412"></path>
                    <path
                        d="M14.91 0L14.91-146.29L76.98-146.29Q100.23-146.29 112.95-141.68L112.95-141.68Q136.42-133.13 144.31-110.32L144.31-110.32Q150.23-92.77 150.23-72.81L150.23-72.81Q150.23-53.08 144.53-35.53L144.53-35.53Q138.83-17.55 125.67-8.99L125.67-8.99Q117.34-3.73 107.36-1.86Q97.38 0 76.98 0L76.98 0L14.91 0ZM76.98-120.19L46.06-120.19L46.06-26.10L76.98-26.10Q97.38-26.10 105.27-35.09L105.27-35.09Q110.10-40.79 113.06-51.10Q116.02-61.41 116.02-73.03L116.02-73.03Q116.02-85.97 112.51-96.72Q109.00-107.47 103.30-112.73L103.30-112.73Q94.97-120.19 76.98-120.19L76.98-120.19Z"
                        transform="translate(135.75907999999998 867.96) " fill="rgb(8, 12, 36)" stroke="rgb(8, 12, 36)"
                        stroke-width="0.366" data-glyph-w="157.03312" data-glyph-h="219.32"
                        data-glyph-ascender="188.39587999999998" data-glyph-descender="-30.92412"></path>
                    <path
                        d="M14.91 0L14.91-146.29L76.98-146.29Q100.23-146.29 112.95-141.68L112.95-141.68Q136.42-133.13 144.31-110.32L144.31-110.32Q150.23-92.77 150.23-72.81L150.23-72.81Q150.23-53.08 144.53-35.53L144.53-35.53Q138.83-17.55 125.67-8.99L125.67-8.99Q117.34-3.73 107.36-1.86Q97.38 0 76.98 0L76.98 0L14.91 0ZM76.98-120.19L46.06-120.19L46.06-26.10L76.98-26.10Q97.38-26.10 105.27-35.09L105.27-35.09Q110.10-40.79 113.06-51.10Q116.02-61.41 116.02-73.03L116.02-73.03Q116.02-85.97 112.51-96.72Q109.00-107.47 103.30-112.73L103.30-112.73Q94.97-120.19 76.98-120.19L76.98-120.19Z"
                        transform="translate(292.7922 867.96) " fill="rgb(8, 12, 36)" stroke="rgb(8, 12, 36)"
                        stroke-width="0.366" data-glyph-w="157.03312" data-glyph-h="219.32"
                        data-glyph-ascender="188.39587999999998" data-glyph-descender="-30.92412"></path>
                </g>
            </svg></g>
    </g>
</svg>