<svg width="800" height="140" xmlns="http://www.w3.org/2000/svg" class="svg-canvas" version="1.1" preserveAspectRatio="none">

 <g>
  <title>Layer 1</title>
  <g transform="translate(2.33923 4.90892) scale(1 1)" id="shape_OYqKI1CcvR">
   <g id="svg_4">
    <rect id="svg_5" y="-10" x="2" height="151.41243" width="192.31968" fill="rgba(0,0,0,0)"/>
    <svg data-parent="shape_OYqKI1CcvR" preserveAspectRatio="none" class="style-removed" xml:space="preserve" viewBox="2.5 23.899999618530273 196.29998779296875 149.70001220703125" height="131.41243" width="172.31968" y="0" x="12" id="svg_1" version="1.1" xmlns:xlink="http://www.w3.org/1999/xlink" xmlns="http://www.w3.org/2000/svg">
     <path id="svg_6" stroke-width="0" fill="#0348FE" d="m2.5,173.5l15.7,-55.8c1.9,-6.7 8,-11.3 14.9,-11.3l77.7,0l-15.8,55.9c-1.9,6.7 -8,11.3 -14.9,11.3l-77.6,0l0,-0.1z"/>
     <path id="svg_7" stroke-width="0" fill="#027DFF" d="m50.3,50.5l6.2,-22.1c0.7,-2.6 3.2,-4.5 5.9,-4.5l30.7,0l-6.2,22.1c-0.7,2.6 -3.2,4.5 -5.9,4.5l-30.7,0z"/>
     <path id="svg_8" stroke-width="0" fill="#027DFF" d="m46.5,132.3l15.7,-55.8c1.9,-6.7 8,-11.3 14.9,-11.3l77.7,0l-15.7,55.8c-1.9,6.7 -8,11.3 -14.9,11.3l-77.7,0z"/>
     <path id="svg_9" stroke-width="0" fill="#0507D9" d="m77.1,65.3c-6.9,0 -13,4.6 -14.9,11.3l28.3,14.4c0,0 7.3,-25.8 7.3,-25.8l-20.7,0l0,0.1z"/>
     <path id="svg_10" stroke-width="0" fill="#0507D9" d="m33.1,106.5c-6.9,0 -13,4.6 -14.9,11.3l28.3,14.5c0,0 7.3,-25.8 7.3,-25.8l-20.7,0z"/>
     <path id="svg_11" stroke-width="0" fill="#0348FE" d="m90.5,91l15.7,-55.8c1.9,-6.7 8,-11.3 14.9,-11.3l77.7,0l-15.7,55.8c-1.9,6.7 -8,11.3 -14.9,11.3l-77.7,0z"/>
    </svg>
   </g>
  </g>
  <g transform="translate(61.7403 -365.725) scale(1 1)" id="shape_PUimOcwDy2">
   <svg y="0" x="40" id="svg_12" data-parent="shape_PUimOcwDy2" viewBox="0 0 1057.519069482858 900.0407680000001" height="900.04077" width="1057.51907" version="1.1" xmlns:xlink="http://www.w3.org/1999/xlink" xmlns="http://www.w3.org/2000/svg">
    <rect id="svg_13" y="363.84" x="121.28" height="145" width="572.39907" fill="rgba(0,0,0,0)"/>
    <g id="svg_14" data-width="551.58144">
     <path id="svg_15" data-glyph-descender="-17.10048" data-glyph-ascender="104.17952" data-glyph-h="121.28" data-glyph-w="75.07232" stroke-width="0.202" stroke="#FFFFFF" fill="#FFFFFF" d="m160.94,479.84l-35.66,0l0,-14.31l34.69,0q7.15,0 9.7,-2.06l0,0q3.15,-2.55 3.15,-7.52l0,0q0,-6.07 -4,-8.37l0,0q-2.55,-1.46 -8.85,-1.46l0,0l-27.05,0l0,-14.31l27.05,0q7.64,0 9.94,-1.94l0,0q2.79,-2.3 2.79,-7.15l0,0q0,-5.34 -3.64,-7.76l0,0q-1.33,-0.98 -3.09,-1.28q-1.76,-0.3 -6,-0.3l0,0l-34.69,0l0,-14.43l37.72,0q8,0.12 10.25,0.36q2.24,0.24 4.91,1.21l0,0q6.31,2.31 9.95,8.49l0,0q3.63,5.7 3.63,12.25l0,0q0,11.28 -10.79,17.59l0,0q10.79,7.03 10.79,19.52l0,0q0,11.53 -8.73,17.1l0,0q-3.88,2.55 -8.43,3.46q-4.55,0.91 -13.64,0.91l0,0z"/>
     <path id="svg_16" data-glyph-descender="-17.10048" data-glyph-ascender="104.17952" data-glyph-h="121.28" data-glyph-w="86.83648" stroke-width="0.202" stroke="#FFFFFF" fill="#FFFFFF" d="m204.60232,479.84l0,-80.89l34.32,0q12.85,0 19.89,2.54l0,0q12.98,4.73 17.34,17.35l0,0q3.28,9.7 3.28,20.74l0,0q0,10.91 -3.16,20.61l0,0q-3.15,9.95 -10.43,14.68l0,0q-4.61,2.91 -10.12,3.94q-5.52,1.03 -16.8,1.03l0,0l-34.32,0zm34.32,-66.46l-17.1,0l0,52.03l17.1,0q11.28,0 15.64,-4.97l0,0q2.67,-3.16 4.31,-8.86q1.64,-5.7 1.64,-12.13l0,0q0,-7.15 -1.94,-13.09q-1.94,-5.95 -5.1,-8.86l0,0q-4.61,-4.12 -14.55,-4.12l0,0z"/>
     <path id="svg_17" data-glyph-descender="-17.10048" data-glyph-ascender="104.17952" data-glyph-h="121.28" data-glyph-w="86.83648" stroke-width="0.202" stroke="#FFFFFF" fill="#FFFFFF" d="m291.4388,479.84l0,-80.89l34.32,0q12.85,0 19.89,2.54l0,0q12.98,4.73 17.34,17.35l0,0q3.28,9.7 3.28,20.74l0,0q0,10.91 -3.16,20.61l0,0q-3.15,9.95 -10.43,14.68l0,0q-4.61,2.91 -10.12,3.94q-5.52,1.03 -16.8,1.03l0,0l-34.32,0zm34.32,-66.46l-17.1,0l0,52.03l17.1,0q11.28,0 15.64,-4.97l0,0q2.67,-3.16 4.31,-8.86q1.64,-5.7 1.64,-12.13l0,0q0,-7.15 -1.94,-13.09q-1.94,-5.95 -5.1,-8.86l0,0q-4.61,-4.12 -14.55,-4.12l0,0z"/>
     <path id="svg_18" data-glyph-descender="-17.10048" data-glyph-ascender="104.17952" data-glyph-h="121.28" data-glyph-w="61.48896" stroke-width="0.202" stroke="#FFFFFF" fill="#FFFFFF" d="m391.97528,443.94l34.2,0l0,12.61l-34.2,0q0.49,5.83 3.76,8.25q3.28,2.43 10.67,2.43l0,0l19.77,0l0,12.61l-21.59,0q-7.03,0 -11.46,-1.27q-4.42,-1.28 -8.3,-4.19l0,0q-10.8,-8.37 -10.8,-24.86l0,0q0,-10.67 5.7,-18.68l0,0q3.88,-5.45 9.34,-7.76q5.46,-2.3 14.31,-2.3l0,0l22.8,0l0,12.61l-21.59,0q-6.67,0 -9.33,2.24q-2.67,2.25 -3.28,8.31l0,0z"/>
     <path id="svg_19" data-glyph-descender="-17.10048" data-glyph-ascender="104.17952" data-glyph-h="121.28" data-glyph-w="66.46144" stroke-width="0.202" stroke="#FFFFFF" fill="#FFFFFF" d="m456.01425,420.78l34.68,0l0,12.61l-28.74,0q-4.97,0 -6.31,0.48l0,0q-2.78,0.98 -2.78,4.73l0,0q0,3.16 2.66,4.86l0,0q1.46,0.97 7.89,0.97l0,0l9.58,0q9.22,0 14.55,3.88l0,0q5.94,4.36 5.94,12.85l0,0q0,6.43 -3.63,11.77l0,0q-2.67,4.24 -6.49,5.58q-3.82,1.33 -12.8,1.33l0,0l-33.59,0l0,-12.61l28.98,0q5.34,0 7.28,-0.12l0,0q4.37,-0.49 4.37,-4.98l0,0q0,-3.64 -2.91,-4.97l0,0q-1.46,-0.73 -7.04,-0.73l0,0l-9.82,0q-5.82,0 -8.92,-0.72q-3.09,-0.73 -5.76,-2.67l0,0q-3.27,-2.31 -5.15,-6.37q-1.88,-4.06 -1.88,-8.67l0,0q0,-8.86 6.43,-14.07l0,0q3.88,-3.15 13.46,-3.15l0,0z"/>
     <path id="svg_20" data-glyph-descender="-17.10048" data-glyph-ascender="104.17952" data-glyph-h="121.28" data-glyph-w="32.26048" stroke-width="0.202" stroke="#FFFFFF" fill="#FFFFFF" d="m505.85568,479.84l0,-59.06l16.25,0l0,59.06l-16.25,0zm16.25,-65.13l-16.25,0l0,-15.76l16.25,0l0,15.76z"/>
     <path id="svg_21" data-glyph-descender="-17.10048" data-glyph-ascender="104.17952" data-glyph-h="121.28" data-glyph-w="72.52544" stroke-width="0.202" stroke="#FFFFFF" fill="#FFFFFF" d="m564.43615,420.78l30.32,0l0,58.7q0,4.97 -1.15,8.85q-1.15,3.88 -3.34,6.55l0,0q-2.79,3.39 -6.73,4.67q-3.94,1.27 -11.46,1.27l0,0l-32.38,0l0,-12.61l30.2,0q5.33,0 6.97,-1.64q1.64,-1.64 1.64,-6.73l0,0l-14.92,0q-7.15,0 -11.82,-1.52q-4.67,-1.51 -8.43,-5.03l0,0q-8.86,-8.37 -8.86,-23.04l0,0q0,-16.74 10.8,-24.38l0,0q3.88,-2.79 8.19,-3.94q4.3,-1.15 10.97,-1.15l0,0zm14.07,46.45l0,-33.84l-13.46,0q-14.07,0 -14.07,16.98l0,0q0,8.25 3.82,12.55q3.82,4.31 11.1,4.31l0,0l12.61,0z"/>
     <path id="svg_22" data-glyph-descender="-17.10048" data-glyph-ascender="104.17952" data-glyph-h="121.28" data-glyph-w="70.09984" stroke-width="0.202" stroke="#FFFFFF" fill="#FFFFFF" d="m610.6416,479.84l0,-59.06l31.29,0q7.04,0 10.74,1.03q3.7,1.03 6.73,3.7l0,0q6.18,5.7 6.18,17.95l0,0l0,36.38l-16.25,0l0,-38.2q0,-4.37 -1.94,-6.31q-1.94,-1.94 -6.43,-1.94l0,0l-14.07,0l0,46.45l-16.25,0z"/>
    </g>
   </svg>
  </g>
 </g>
</svg>